<svg version="1.1" viewBox="0.0 0.0 1152.0 864.0" fill="none" stroke="none" stroke-linecap="square" stroke-miterlimit="10" xmlns:xlink="http://www.w3.org/1999/xlink" xmlns="http://www.w3.org/2000/svg"><clipPath id="p.0"><path d="m0 0l1152.0 0l0 864.0l-1152.0 0l0 -864.0z" clip-rule="nonzero"/></clipPath><g clip-path="url(#p.0)"><path fill="#000000" fill-opacity="0.0" d="m0 0l1152.0 0l0 864.0l-1152.0 0z" fill-rule="evenodd"/><path fill="#5a81a5" d="m708.05774 -0.0131233595l0 0c-26.070435 0 -47.204712 21.134274 -47.204712 47.204723l47.204712 0c-13.035217 0 -23.602356 10.567139 -23.602356 23.60236c0 13.035225 10.567139 23.602364 23.602356 23.602364l-47.204712 0l0 613.66144l0 0c0 26.070435 -21.134277 47.204712 -47.204712 47.204712l-566.4567 0c-26.07045 0 -47.204723 -21.134277 -47.204723 -47.204712c0 -26.070435 21.134274 -47.204712 47.204723 -47.204712l47.204723 0l0 -613.66144c0 -26.07045 21.134277 -47.204723 47.20472 -47.204723zm-141.6142 708.07086l0 0c0 -26.070435 21.134277 -47.204712 47.204773 -47.204712c13.035217 0 23.602356 10.567139 23.602356 23.602356c0 13.035217 -10.567139 23.602356 -23.602356 23.602356z" fill-rule="evenodd"/><path fill="#476783" d="m566.44354 708.05774l0 0c0 -26.070435 21.134277 -47.204712 47.204773 -47.204712c13.035217 0 23.602356 10.567139 23.602356 23.602356c0 13.035217 -10.567139 23.602356 -23.602356 23.602356zm94.409485 -660.86615c0 -26.07045 21.134277 -47.204723 47.204712 -47.204723c26.070435 0 47.204712 21.134274 47.204712 47.204723c0 26.070446 -21.134277 47.204723 -47.204712 47.204723l0 0c-13.035217 0 -23.602356 -10.567139 -23.602356 -23.602364c0 -13.035221 10.567139 -23.60236 23.602356 -23.60236z" fill-rule="evenodd"/><path fill="#000000" fill-opacity="0.0" d="m660.853 94.396324l0 613.66144l0 0c0 26.070435 -21.134277 47.204712 -47.204712 47.204712l-566.4567 0c-26.07045 0 -47.204723 -21.134277 -47.204723 -47.204712c0 -26.070435 21.134274 -47.204712 47.204723 -47.204712l47.204723 0l0 -613.66144c0 -26.07045 21.134277 -47.204723 47.20472 -47.204723l566.45667 0l0 0c26.070435 0 47.204712 21.134274 47.204712 47.204723c0 26.070446 -21.134277 47.204723 -47.204712 47.204723zm-47.204712 660.86615l0 0c-26.070496 0 -47.204773 -21.134277 -47.204773 -47.204712c0 -26.070435 21.134277 -47.204712 47.204773 -47.204712c13.035217 0 23.602356 10.567139 23.602356 23.602356c0 13.035217 -10.567139 23.602356 -23.602356 23.602356l-47.204773 0m-472.0472 -47.204712l519.252 0m94.409424 -566.4567l0 0c-13.035217 0 -23.602356 -10.567139 -23.602356 -23.602364c0 -13.035221 10.567139 -23.60236 23.602356 -23.60236l-47.204712 0m47.204712 -47.204723l0 0c-26.070435 0 -47.204712 21.134274 -47.204712 47.204723l0 47.204723" fill-rule="evenodd"/><path stroke="#000000" stroke-width="1.0" stroke-linejoin="round" stroke-linecap="butt" d="m660.853 94.396324l0 613.66144l0 0c0 26.070435 -21.134277 47.204712 -47.204712 47.204712l-566.4567 0c-26.07045 0 -47.204723 -21.134277 -47.204723 -47.204712c0 -26.070435 21.134274 -47.204712 47.204723 -47.204712l47.204723 0l0 -613.66144c0 -26.07045 21.134277 -47.204723 47.20472 -47.204723l566.45667 0l0 0c26.070435 0 47.204712 21.134274 47.204712 47.204723c0 26.070446 -21.134277 47.204723 -47.204712 47.204723zm-47.204712 660.86615l0 0c-26.070496 0 -47.204773 -21.134277 -47.204773 -47.204712c0 -26.070435 21.134277 -47.204712 47.204773 -47.204712c13.035217 0 23.602356 10.567139 23.602356 23.602356c0 13.035217 -10.567139 23.602356 -23.602356 23.602356l-47.204773 0m-472.0472 -47.204712l519.252 0m94.409424 -566.4567l0 0c-13.035217 0 -23.602356 -10.567139 -23.602356 -23.602364c0 -13.035221 10.567139 -23.60236 23.602356 -23.60236l-47.204712 0m47.204712 -47.204723l0 0c-26.070435 0 -47.204712 21.134274 -47.204712 47.204723l0 47.204723" fill-rule="evenodd"/><path fill="#ffffff" d="m286.6168 326.7244l137.68506 0l0 -22.165344l44.33069 44.33072l-44.33069 44.33069l0 -22.165344l-137.68506 0l22.165375 -22.165344z" fill-rule="evenodd"/><path fill="#000000" fill-opacity="0.0" d="m168.88452 157.56693l417.4803 0l0 146.99213l-417.4803 0z" fill-rule="evenodd"/><path fill="#ffffff" d="m219.12468 238.04494q0 0.625 -0.40625 1.125q-0.40625 0.5 -1.34375 0.8125q-0.9375 0.3125 -2.5 0.5q-1.5625 0.1875 -4.0 0.1875q-2.375 0 -3.96875 -0.1875q-1.59375 -0.1875 -2.53125 -0.5q-0.9375 -0.3125 -1.34375 -0.8125q-0.40625 -0.5 -0.40625 -1.125l0 -76.375q0 -0.625 0.40625 -1.125q0.40625 -0.5 1.375 -0.8125q0.96875 -0.3125 2.53125 -0.5q1.5625 -0.1875 3.9375 -0.1875q2.4375 0 4.0 0.1875q1.5625 0.1875 2.5 0.5q0.9375 0.3125 1.34375 0.8125q0.40625 0.5 0.40625 1.125l0 76.375zm69.937485 0.125q0 0.625 -0.375 1.09375q-0.375 0.46875 -1.25 0.78125q-0.875 0.3125 -2.40625 0.46875q-1.53125 0.15625 -3.78125 0.15625q-2.3125 0 -3.84375 -0.15625q-1.53125 -0.15625 -2.40625 -0.46875q-0.875 -0.3125 -1.25 -0.78125q-0.375 -0.46875 -0.375 -1.09375l0 -31.8125q0 -4.0625 -0.59375 -6.375q-0.59375 -2.3125 -1.71875 -3.96875q-1.125 -1.65625 -2.90625 -2.5625q-1.78125 -0.90625 -4.15625 -0.90625q-3.0 0 -6.0625 2.1875q-3.0624847 2.1875 -6.3749847 6.375l0 37.0625q0 0.625 -0.375 1.09375q-0.375 0.46875 -1.28125 0.78125q-0.90625 0.3125 -2.40625 0.46875q-1.5 0.15625 -3.8125 0.15625q-2.3125 0 -3.8125 -0.15625q-1.5 -0.15625 -2.40625 -0.46875q-0.90625 -0.3125 -1.28125 -0.78125q-0.375 -0.46875 -0.375 -1.09375l0 -55.75q0 -0.625 0.3125 -1.09375q0.3125 -0.46875 1.125 -0.78125q0.8125 -0.3125 2.09375 -0.46875q1.28125 -0.15625 3.21875 -0.15625q2.0 0 3.3125 0.15625q1.3125 0.15625 2.03125 0.46875q0.71875 0.3125 1.03125 0.78125q0.3125 0.46875 0.3125 1.09375l0 6.4375q4.625 -5.0 9.406235 -7.5q4.78125 -2.5 9.96875 -2.5q5.6875 0 9.59375 1.875q3.90625 1.875 6.3125 5.09375q2.40625 3.21875 3.46875 7.53125q1.0625 4.3125 1.0625 10.375l0 34.4375zm68.3125 0q0 0.6875 -0.3125 1.15625q-0.3125 0.46875 -1.0625 0.78125q-0.75 0.3125 -2.03125 0.4375q-1.28125 0.125 -3.15625 0.125q-2.0 0 -3.25 -0.125q-1.25 -0.125 -2.03125 -0.4375q-0.78125 -0.3125 -1.125 -0.78125q-0.34375 -0.46875 -0.34375 -1.15625l0 -6.1875q-4.3125 4.625 -9.03125 7.1875q-4.71875 2.5625 -10.46875 2.5625q-6.375 0 -10.78125 -2.46875q-4.40625 -2.46875 -7.1875 -6.65625q-2.78125 -4.1875 -4.03125 -9.78125q-1.25 -5.59375 -1.25 -11.78125q0 -7.4375 1.59375 -13.375q1.59375 -5.9375 4.65625 -10.125q3.0625 -4.1875 7.625 -6.4375q4.5625 -2.25 10.5 -2.25q4.6875 0 8.5 1.90625q3.8125 1.90625 7.5625 5.59375l0 -30.1875q0 -0.625 0.34375 -1.125q0.34375 -0.5 1.25 -0.84375q0.90625 -0.34375 2.40625 -0.53125q1.5 -0.1875 3.8125 -0.1875q2.3125 0 3.8125 0.1875q1.5 0.1875 2.375 0.53125q0.875 0.34375 1.25 0.84375q0.375 0.5 0.375 1.125l0 82.0zm-15.625 -37.25q-3.375 -4.25 -6.46875 -6.5q-3.09375 -2.25 -6.46875 -2.25q-3.0625 0 -5.28125 1.53125q-2.21875 1.53125 -3.5625 4.09375q-1.34375 2.5625 -2.0 5.71875q-0.65625 3.15625 -0.65625 6.46875q0 3.5 0.5625 6.8125q0.5625 3.3125 1.84375 5.90625q1.28125 2.59375 3.40625 4.15625q2.125 1.5625 5.375 1.5625q1.625 0 3.15625 -0.46875q1.53125 -0.46875 3.125 -1.53125q1.59375 -1.0625 3.28125 -2.78125q1.6875 -1.71875 3.6875 -4.21875l0 -18.5zm83.25003 37.3125q0 0.625 -0.34378052 1.09375q-0.34375 0.46875 -1.25 0.75q-0.90625 0.28125 -2.46875 0.4375q-1.5625 0.15625 -4.0625 0.15625q-2.5625 0 -4.15625 -0.125q-1.59375 -0.125 -2.625 -0.40625q-1.03125 -0.28125 -1.59375 -0.78125q-0.5625 -0.5 -1.0 -1.3125l-18.5625 -29.375l0 29.5q0 0.625 -0.375 1.09375q-0.375 0.46875 -1.28125 0.78125q-0.90625 0.3125 -2.40625 0.46875q-1.5 0.15625 -3.8125 0.15625q-2.3125 0 -3.8125 -0.15625q-1.5 -0.15625 -2.40625 -0.46875q-0.90625 -0.3125 -1.28125 -0.78125q-0.375 -0.46875 -0.375 -1.09375l0 -82.1875q0 -0.625 0.375 -1.125q0.375 -0.5 1.28125 -0.84375q0.90625 -0.34375 2.40625 -0.53125q1.5 -0.1875 3.8125 -0.1875q2.3125 0 3.8125 0.1875q1.5 0.1875 2.40625 0.53125q0.90625 0.34375 1.28125 0.84375q0.375 0.5 0.375 1.125l0 48.9375l16.5 -22.1875q0.5 -0.75 1.125 -1.3125q0.625 -0.5625 1.65625 -0.875q1.03125 -0.3125 2.5625 -0.46875q1.53125 -0.15625 3.90625 -0.15625q2.3125 0 3.90625 0.15625q1.59375 0.15625 2.5625 0.46875q0.96875 0.3125 1.34375 0.78125q0.375 0.46875 0.375 1.15625q0 0.9375 -0.46875 2.0q-0.46875 1.0625 -1.40625 2.25l-16.3125 18.5l18.875 29.1875q0.75 1.25 1.09375 2.15625q0.34378052 0.90625 0.34378052 1.65625zm63.25 -28.5q0 7.125 -1.9375 13.0q-1.9375 5.875 -5.8125 10.125q-3.875 4.25 -9.6875 6.5625q-5.8125 2.3125 -13.5625 2.3125q-2.375 0 -4.34375 -0.25q-1.96875 -0.25 -3.65625 -0.6875l-4.125 8.625q-0.4375 1.0 -1.9375 1.40625q-1.5 0.40625 -4.25 0.40625q-3.75 0 -4.875 -0.71875q-1.125 -0.71875 -0.375 -2.21875l5.3125 -11.125q-2.9375 -1.875 -5.09375 -4.59375q-2.15625 -2.71875 -3.5625 -6.09375q-1.40625 -3.375 -2.0625 -7.34375q-0.65625 -3.96875 -0.65625 -8.28125q0 -7.1875 1.90625 -13.0625q1.90625 -5.875 5.78125 -10.09375q3.875 -4.21875 9.6875 -6.53125q5.8125 -2.3125 13.625 -2.3125q2.0625 0 4.0625 0.21875q2.0 0.21875 3.875 0.65625l3.9375 -8.25q0.5 -0.9375 1.90625 -1.375q1.40625 -0.4375 4.21875 -0.4375q3.75 0 4.90625 0.6875q1.15625 0.6875 0.40625 2.25l-5.125 10.75q2.9375 1.875 5.09375 4.5625q2.15625 2.6875 3.5625 6.0625q1.40625 3.375 2.09375 7.34375q0.6875 3.96875 0.6875 8.40625zm-14.875 0.1875q0 -1.75 -0.1875 -3.5q-0.1875 -1.75 -0.59375 -3.4375q-0.40625 -1.6875 -1.09375 -3.125q-0.6875 -1.4375 -1.6875 -2.625l-15.5 32.4375q0.8125 0.3125 1.90625 0.46875q1.09375 0.15625 2.09375 0.15625q3.75 0 6.59375 -1.34375q2.84375 -1.34375 4.71875 -3.9375q1.875 -2.59375 2.8125 -6.375q0.9375 -3.78125 0.9375 -8.71875zm-11.75 -19.125q-0.8125 -0.25 -1.90625 -0.40625q-1.09375 -0.15625 -2.21875 -0.15625q-3.75 0 -6.5625 1.375q-2.8125 1.375 -4.6875 3.9375q-1.875 2.5625 -2.8125 6.375q-0.9375 3.8125 -0.9375 8.625q0 3.6875 0.78125 7.09375q0.78125 3.40625 2.78125 5.71875l15.5625 -32.5625zm95.125 18.75q0 7.4375 -1.625 13.375q-1.625 5.9375 -4.6875 10.125q-3.0625 4.1875 -7.53125 6.4375q-4.46875 2.25 -10.15625 2.25q-2.8125 0 -5.25 -0.53125q-2.4375 -0.53125 -4.65625 -1.71875q-2.21875 -1.1875 -4.375 -3.0q-2.15625 -1.8125 -4.40625 -4.375l0 6.0625q0 0.6875 -0.34375 1.15625q-0.34375 0.46875 -1.125 0.78125q-0.78125 0.3125 -2.09375 0.4375q-1.3125 0.125 -3.1875 0.125q-1.9375 0 -3.21875 -0.125q-1.28125 -0.125 -2.0625 -0.4375q-0.78125 -0.3125 -1.09375 -0.78125q-0.3125 -0.46875 -0.3125 -1.15625l0 -82.1875q0 -0.625 0.375 -1.125q0.375 -0.5 1.28125 -0.84375q0.90625 -0.34375 2.40625 -0.53125q1.5 -0.1875 3.8125 -0.1875q2.3125 0 3.8125 0.1875q1.5 0.1875 2.40625 0.53125q0.90625 0.34375 1.28125 0.84375q0.375 0.5 0.375 1.125l0 30.8125q2.125 -2.125 4.25 -3.625q2.125 -1.5 4.25 -2.46875q2.125 -0.96875 4.375 -1.40625q2.25 -0.4375 4.75 -0.4375q6.1875 0 10.5 2.46875q4.3125 2.46875 7.03125 6.65625q2.71875 4.1875 3.96875 9.78125q1.25 5.59375 1.25 11.78125zm-16.3125 1.125q0 -3.5625 -0.53125 -6.875q-0.53125 -3.3125 -1.84375 -5.875q-1.3125 -2.5625 -3.40625 -4.09375q-2.09375 -1.53125 -5.28125 -1.53125q-1.5625 0 -3.0625 0.4375q-1.5 0.4375 -3.09375 1.5q-1.59375 1.0625 -3.28125 2.75q-1.6875 1.6875 -3.5625 4.1875l0 18.5q3.3125 4.25 6.34375 6.46875q3.03125 2.21875 6.34375 2.21875q3.0625 0 5.1875 -1.5625q2.125 -1.5625 3.53125 -4.0625q1.40625 -2.5 2.03125 -5.6875q0.625 -3.1875 0.625 -6.375z" fill-rule="nonzero"/><path fill="#ffffff" d="m250.21843 460.4624q0 6.8125 -2.125 12.0625q-2.125 5.25 -6.1875 8.84375q-4.0625 3.59375 -9.96875 5.46875q-5.90625 1.875 -13.90625 1.875l-6.75 0l0 25.8125q0 0.625 -0.40625 1.125q-0.40625 0.5 -1.34375 0.8125q-0.9375 0.3125 -2.5 0.5q-1.5625 0.1875 -4.0 0.1875q-2.375 0 -3.96875 -0.1875q-1.59375 -0.1875 -2.53125 -0.5q-0.9375 -0.3125 -1.3125 -0.8125q-0.375 -0.5 -0.375 -1.125l0 -72.75q0 -2.9375 1.53125 -4.40625q1.53125 -1.46875 4.03125 -1.46875l19.0625 0q2.875 0 5.46875 0.21875q2.59375 0.21875 6.21875 0.9375q3.625 0.71875 7.34375 2.65625q3.71875 1.9375 6.34375 4.90625q2.625 2.96875 4.0 6.9375q1.375 3.96875 1.375 8.90625zm-17.1875 1.1875q0 -4.25 -1.5 -7.0q-1.5 -2.75 -3.6875 -4.0625q-2.1875 -1.3125 -4.59375 -1.65625q-2.40625 -0.34375 -4.96875 -0.34375l-7.0 0l0 27.4375l7.375 0q3.9375 0 6.59375 -1.0625q2.65625 -1.0625 4.34375 -2.96875q1.6875 -1.90625 2.5625 -4.5625q0.875 -2.65625 0.875 -5.78125zm64.812485 2.4375q0 2.25 -0.125 3.6875q-0.125 1.4375 -0.375 2.25q-0.25 0.8125 -0.65625 1.125q-0.40625 0.3125 -1.03125 0.3125q-0.5 0 -1.125 -0.21875q-0.625 -0.21875 -1.40625 -0.46875q-0.78125 -0.25 -1.71875 -0.46875q-0.9375 -0.21875 -2.0625 -0.21875q-1.3125 0 -2.625 0.53125q-1.3125 0.53125 -2.71875 1.65625q-1.40625 1.125 -2.9375 3.0q-1.53125 1.875 -3.28125 4.625l0 34.75q0 0.625 -0.375 1.09375q-0.375 0.46875 -1.28125 0.78125q-0.90625 0.3125 -2.40625 0.46875q-1.5 0.15625 -3.8125 0.15625q-2.3125 0 -3.8125 -0.15625q-1.5 -0.15625 -2.40625 -0.46875q-0.90625 -0.3125 -1.28125 -0.78125q-0.375 -0.46875 -0.375 -1.09375l0 -55.75q0 -0.625 0.3125 -1.09375q0.3125 -0.46875 1.125 -0.78125q0.8125 -0.3125 2.09375 -0.46875q1.28125 -0.15625 3.21875 -0.15625q2.0 0 3.3125 0.15625q1.3125 0.15625 2.03125 0.46875q0.71875 0.3125 1.03125 0.78125q0.3125 0.46875 0.3125 1.09375l0 6.9375q2.1875 -3.125 4.125 -5.15625q1.9375 -2.03125 3.6875 -3.21875q1.75 -1.1875 3.5 -1.65625q1.75 -0.46875 3.5 -0.46875q0.8125 0 1.75 0.09375q0.9375 0.09375 1.9375 0.3125q1.0 0.21875 1.75 0.5q0.75 0.28125 1.09375 0.59375q0.34375 0.3125 0.5 0.6875q0.15625 0.375 0.28125 1.03125q0.125 0.65625 0.1875 1.96875q0.0625 1.3125 0.0625 3.5625zm64.5 22.125q0 7.125 -1.875 13.0q-1.875 5.875 -5.6875 10.125q-3.8125 4.25 -9.5625 6.5625q-5.75 2.3125 -13.4375 2.3125q-7.4375 0 -12.9375 -2.0625q-5.5 -2.0625 -9.125 -6.0q-3.625 -3.9375 -5.375 -9.6875q-1.75 -5.75 -1.75 -13.125q0 -7.125 1.90625 -13.03125q1.90625 -5.90625 5.71875 -10.125q3.8125 -4.21875 9.53125 -6.53125q5.71875 -2.3125 13.40625 -2.3125q7.5 0 13.0 2.03125q5.5 2.03125 9.09375 5.96875q3.59375 3.9375 5.34375 9.6875q1.75 5.75 1.75 13.1875zm-16.1875 0.625q0 -4.125 -0.65625 -7.59375q-0.65625 -3.46875 -2.21875 -6.03125q-1.5625 -2.5625 -4.15625 -4.0q-2.59375 -1.4375 -6.53125 -1.4375q-3.5 0 -6.125 1.28125q-2.625 1.28125 -4.3125 3.75q-1.6875 2.46875 -2.53125 5.9375q-0.84375 3.46875 -0.84375 7.90625q0 4.125 0.6875 7.59375q0.6875 3.46875 2.21875 6.03125q1.53125 2.5625 4.15625 3.96875q2.625 1.40625 6.5 1.40625q3.5625 0 6.1875 -1.28125q2.625 -1.28125 4.3125 -3.71875q1.6875 -2.4375 2.5 -5.90625q0.8125 -3.46875 0.8125 -7.90625zm45.5625 29.6875q0 6.5625 -1.125 10.625q-1.125 4.0625 -3.40625 6.84375q-2.28125 2.78125 -5.71875 4.1875q-3.4375 1.40625 -8.0625 1.40625q-2.5625 0 -4.375 -0.34375q-1.8125 -0.34375 -2.625 -0.71875q-0.8125 -0.375 -1.125 -0.9375q-0.3125 -0.5625 -0.4375 -1.28125q-0.125 -0.71875 -0.1875 -1.625q-0.0625 -0.90625 -0.0625 -2.34375q0 -1.75 0.09375 -2.90625q0.09375 -1.15625 0.34375 -1.84375q0.25 -0.6875 0.5625 -1.0q0.3125 -0.3125 0.8125 -0.3125q0.3125 0 1.28125 0.15625q0.96875 0.15625 2.09375 0.15625q1.625 0 2.8125 -0.5q1.1875 -0.5 1.9375 -1.59375q0.75 -1.09375 1.125 -2.8125q0.375 -1.71875 0.375 -5.46875l0 -57.1875q0 -0.625 0.375 -1.09375q0.375 -0.46875 1.25 -0.8125q0.875 -0.34375 2.375 -0.53125q1.5 -0.1875 3.8125 -0.1875q2.3125 0 3.8125 0.1875q1.5 0.1875 2.40625 0.53125q0.90625 0.34375 1.28125 0.8125q0.375 0.46875 0.375 1.09375l0 57.5zm1.1875 -76.5q0 4.75 -1.90625 6.5625q-1.90625 1.8125 -7.21875 1.8125q-5.25 0 -7.125 -1.75q-1.875 -1.75 -1.875 -6.3125q0 -4.75 1.9375 -6.59375q1.9375 -1.84375 7.1875 -1.84375q5.3125 0 7.15625 1.78125q1.84375 1.78125 1.84375 6.34375zm66.06253 45.125q0 2.875 -1.28125 4.25q-1.28125 1.375 -3.53125 1.375l-33.93753 0q0 3.5625 0.84375 6.46875q0.84375 2.90625 2.6875 4.9375q1.8437805 2.03125 4.7500305 3.09375q2.90625 1.0625 6.96875 1.0625q4.125 0 7.25 -0.59375q3.125 -0.59375 5.40625 -1.3125q2.28125 -0.71875 3.78125 -1.3125q1.5 -0.59375 2.4375 -0.59375q0.5625 0 0.9375 0.21875q0.375 0.21875 0.625 0.78125q0.25 0.5625 0.34375 1.59375q0.09375 1.03125 0.09375 2.59375q0 1.375 -0.0625 2.34375q-0.0625 0.96875 -0.1875 1.65625q-0.125 0.6875 -0.375 1.15625q-0.25 0.46875 -0.65625 0.90625q-0.40625 0.4375 -2.21875 1.1875q-1.8125 0.75 -4.625 1.46875q-2.8125 0.71875 -6.4375 1.25q-3.625 0.53125 -7.75 0.53125q-7.4375 0 -13.0312805 -1.875q-5.59375 -1.875 -9.34375 -5.6875q-3.75 -3.8125 -5.59375 -9.625q-1.84375 -5.8125 -1.84375 -13.625q0 -7.4375 1.9375 -13.40625q1.9375 -5.96875 5.625 -10.125q3.6875 -4.15625 8.96875 -6.34375q5.2812805 -2.1875 11.9062805 -2.1875q7.0 0 11.96875 2.0625q4.96875 2.0625 8.15625 5.71875q3.1875 3.65625 4.6875 8.65625q1.5 5.0 1.5 10.875l0 2.5zm-15.25 -4.5q0.1875 -6.625 -2.65625 -10.40625q-2.84375 -3.78125 -8.78125 -3.78125q-3.0 0 -5.21875 1.125q-2.2187805 1.125 -3.6875305 3.03125q-1.46875 1.90625 -2.25 4.5q-0.78125 2.59375 -0.90625 5.53125l23.50003 0zm80.0 34.0625q0 0.625 -0.34375 1.09375q-0.34375 0.46875 -1.25 0.75q-0.90625 0.28125 -2.46875 0.4375q-1.5625 0.15625 -4.0625 0.15625q-2.5625 0 -4.15625 -0.125q-1.59375 -0.125 -2.625 -0.40625q-1.03125 -0.28125 -1.59375 -0.78125q-0.5625 -0.5 -1.0 -1.3125l-18.5625 -29.375l0 29.5q0 0.625 -0.375 1.09375q-0.375 0.46875 -1.28125 0.78125q-0.90625 0.3125 -2.40625 0.46875q-1.5 0.15625 -3.8125 0.15625q-2.3125 0 -3.8125 -0.15625q-1.5 -0.15625 -2.40625 -0.46875q-0.90625 -0.3125 -1.28125 -0.78125q-0.375 -0.46875 -0.375 -1.09375l0 -82.1875q0 -0.625 0.375 -1.125q0.375 -0.5 1.28125 -0.84375q0.90625 -0.34375 2.40625 -0.53125q1.5 -0.1875 3.8125 -0.1875q2.3125 0 3.8125 0.1875q1.5 0.1875 2.40625 0.53125q0.90625 0.34375 1.28125 0.84375q0.375 0.5 0.375 1.125l0 48.9375l16.5 -22.1875q0.5 -0.75 1.125 -1.3125q0.625 -0.5625 1.65625 -0.875q1.03125 -0.3125 2.5625 -0.46875q1.53125 -0.15625 3.90625 -0.15625q2.3125 0 3.90625 0.15625q1.59375 0.15625 2.5625 0.46875q0.96875 0.3125 1.34375 0.78125q0.375 0.46875 0.375 1.15625q0 0.9375 -0.46875 2.0q-0.46875 1.0625 -1.40625 2.25l-16.3125 18.5l18.875 29.1875q0.75 1.25 1.09375 2.15625q0.34375 0.90625 0.34375 1.65625zm42.0 -5.5625q0 2.75 -0.34375 4.21875q-0.34375 1.46875 -0.90625 2.0625q-0.5625 0.59375 -1.65625 1.0625q-1.09375 0.46875 -2.5625 0.8125q-1.46875 0.34375 -3.1875 0.53125q-1.71875 0.1875 -3.46875 0.1875q-4.6875 0 -8.125 -1.1875q-3.4375 -1.1875 -5.6875 -3.65625q-2.25 -2.46875 -3.3125 -6.21875q-1.0625 -3.75 -1.0625 -8.875l0 -28.5625l-6.6875 0q-1.1875 0 -1.8125 -1.46875q-0.625 -1.46875 -0.625 -4.90625q0 -1.8125 0.15625 -3.0625q0.15625 -1.25 0.46875 -1.96875q0.3125 -0.71875 0.78125 -1.03125q0.46875 -0.3125 1.09375 -0.3125l6.625 0l0 -12.4375q0 -0.625 0.34375 -1.125q0.34375 -0.5 1.25 -0.84375q0.90625 -0.34375 2.4375 -0.5q1.53125 -0.15625 3.78125 -0.15625q2.3125 0 3.84375 0.15625q1.53125 0.15625 2.40625 0.5q0.875 0.34375 1.25 0.84375q0.375 0.5 0.375 1.125l0 12.4375l12.125 0q0.625 0 1.09375 0.3125q0.46875 0.3125 0.78125 1.03125q0.3125 0.71875 0.46875 1.96875q0.15625 1.25 0.15625 3.0625q0 3.4375 -0.625 4.90625q-0.625 1.46875 -1.8125 1.46875l-12.1875 0l0 26.1875q0 4.5625 1.4375 6.84375q1.4375 2.28125 5.125 2.28125q1.25 0 2.25 -0.21875q1.0 -0.21875 1.78125 -0.5q0.78125 -0.28125 1.3125 -0.5q0.53125 -0.21875 0.96875 -0.21875q0.375 0 0.71875 0.21875q0.34375 0.21875 0.53125 0.875q0.1875 0.65625 0.34375 1.78125q0.15625 1.125 0.15625 2.875z" fill-rule="nonzero"/></g></svg>