<svg version="1.1" viewBox="200.0 50.0 1852.0 150.0" fill="none" stroke="none" stroke-linecap="square" stroke-miterlimit="10" xmlns:xlink="http://www.w3.org/1999/xlink" xmlns="http://www.w3.org/2000/svg"><clipPath id="p.0"><path d="m0 0l1152.0 0l0 864.0l-1152.0 0l0 -864.0z" clip-rule="nonzero"/></clipPath><g clip-path="url(#p.0)"><path fill="#000000" fill-opacity="0.0" d="m0 0l1152.0 0l0 864.0l-1152.0 0z" fill-rule="evenodd"/><path fill="#000000" fill-opacity="0.0" d="m247.2727 65.32809l39.874023 0l0 58.173225l-39.874023 0z" fill-rule="evenodd"/><path fill="#995ba5" d="m257.42896 97.59496l4.5 -0.4375q0.40625 2.265625 1.640625 3.328125q1.25 1.0625 3.359375 1.0625q2.234375 0 3.359375 -0.9375q1.140625 -0.953125 1.140625 -2.21875q0 -0.8125 -0.484375 -1.375q-0.46875 -0.578125 -1.65625 -1.0q-0.8125 -0.28125 -3.703125 -1.0q-3.71875 -0.921875 -5.21875 -2.265625q-2.109375 -1.890625 -2.109375 -4.609375q0 -1.75 0.984375 -3.265625q1.0 -1.53125 2.859375 -2.328125q1.875 -0.796875 4.515625 -0.796875q4.3125 0 6.484375 1.890625q2.1875 1.890625 2.296875 5.046875l-4.625 0.203125q-0.296875 -1.765625 -1.28125 -2.53125q-0.96875 -0.78125 -2.921875 -0.78125q-2.015625 0 -3.15625 0.828125q-0.734375 0.53125 -0.734375 1.421875q0 0.8125 0.6875 1.390625q0.875 0.734375 4.25 1.53125q3.375 0.796875 4.984375 1.65625q1.625 0.84375 2.53125 2.328125q0.921875 1.46875 0.921875 3.640625q0 1.96875 -1.09375 3.6875q-1.09375 1.71875 -3.09375 2.5625q-2.0 0.828125 -4.984375 0.828125q-4.34375 0 -6.671875 -2.0q-2.328125 -2.015625 -2.78125 -5.859375z" fill-rule="nonzero"/><path fill="#000000" fill-opacity="0.0" d="m245.71054 88.878105l31.842499 0l0 58.173225l-31.842499 0z" fill-rule="evenodd"/><path fill="#995ba5" d="m275.47617 125.69186q1.703125 1.21875 3.703125 1.9375l-1.703125 3.2656326q-1.046875 -0.3125 -2.046875 -0.859375q-0.21875 -0.109375 -3.078125 -2.03125q-2.25 0.984375 -4.984375 0.984375q-5.28125 0 -8.28125 -3.1093826q-2.984375 -3.109375 -2.984375 -8.734375q0 -5.609375 3.0 -8.71875q3.0 -3.125 8.140625 -3.125q5.09375 0 8.078125 3.125q2.984375 3.109375 2.984375 8.71875q0 2.96875 -0.828125 5.21875q-0.625 1.71875 -2.0 3.328125zm-3.71875 -2.609375q0.890625 -1.046875 1.328125 -2.53125q0.453125 -1.484375 0.453125 -3.40625q0 -3.96875 -1.75 -5.921875q-1.75 -1.96875 -4.578125 -1.96875q-2.828125 0 -4.59375 1.96875q-1.75 1.96875 -1.75 5.921875q0 4.015625 1.75 6.015625q1.765625 1.984375 4.453125 1.984375q1.0 0 1.890625 -0.328125q-1.40625 -0.921875 -2.859375 -1.4375l1.296875 -2.640625q2.28125 0.78125 4.359375 2.34375z" fill-rule="nonzero"/><path fill="#000000" fill-opacity="0.0" d="m248.48938 111.75482l35.08661 0l0 58.173233l-35.08661 0z" fill-rule="evenodd"/><path fill="#5da48c" d="m259.9425 151.47482l0 -22.71875l4.625 0l0 18.859375l11.5 0l0 3.859375l-16.125 0z" fill-rule="nonzero"/><path fill="#000000" fill-opacity="0.0" d="m263.6458 111.75482l30.551178 0l0 58.173233l-30.551178 0z" fill-rule="evenodd"/><path fill="#5da48c" d="m274.03644 140.16232q0 -3.5 1.046875 -5.875q0.78125 -1.75 2.125 -3.140625q1.359375 -1.390625 2.96875 -2.0625q2.140625 -0.90625 4.9375 -0.90625q5.0625 0 8.09375 3.140625q3.046875 3.140625 3.046875 8.734375q0 5.546875 -3.015625 8.6875q-3.015625 3.125 -8.0625 3.125q-5.109375 0 -8.125 -3.109375q-3.015625 -3.125 -3.015625 -8.59375zm4.765625 -0.15625q0 3.890625 1.796875 5.90625q1.796875 2.0 4.5625 2.0q2.765625 0 4.53125 -1.984375q1.78125 -2.0 1.78125 -5.984375q0 -3.9375 -1.734375 -5.875q-1.71875 -1.9375 -4.578125 -1.9375q-2.859375 0 -4.609375 1.96875q-1.75 1.953125 -1.75 5.90625z" fill-rule="nonzero"/><path fill="#000000" fill-opacity="0.0" d="m224.99475 111.75482l35.08661 0l0 58.173233l-35.08661 0z" fill-rule="evenodd"/><path fill="#5da48c" d="m236.3385 128.56857l9.15625 0q2.71875 0 4.046875 0.234375q1.34375 0.21875 2.390625 0.9375q1.0625 0.71875 1.765625 1.921875q0.703125 1.1875 0.703125 2.671875q0 1.609375 -0.875 2.953125q-0.859375 1.34375 -2.34375 2.015625q2.09375 0.609375 3.21875 2.078125q1.125 1.46875 1.125 3.453125q0 1.5625 -0.734375 3.046875q-0.71875 1.46875 -1.984375 2.359375q-1.25 0.875 -3.09375 1.078125q-1.15625 0.125 -5.578125 0.15625l-7.796875 0l0 -22.90625zm4.625 3.8125l0 5.296875l3.03125 0q2.703125 0 3.359375 -0.078125q1.1875 -0.140625 1.859375 -0.8125q0.6875 -0.6875 0.6875 -1.796875q0 -1.0625 -0.59375 -1.71875q-0.578125 -0.671875 -1.734375 -0.8125q-0.6875 -0.078125 -3.953125 -0.078125l-2.65625 0zm0 9.109375l0 6.125l4.28125 0q2.5 0 3.171875 -0.140625q1.03125 -0.1875 1.671875 -0.90625q0.65625 -0.734375 0.65625 -1.953125q0 -1.03125 -0.5 -1.75q-0.5 -0.71875 -1.453125 -1.046875q-0.9375 -0.328125 -4.09375 -0.328125l-3.734375 0z" fill-rule="nonzero"/><path fill="#000000" fill-opacity="0.0" d="m304.7869 111.75482l35.08661 0l0 58.173233l-35.08661 0z" fill-rule="evenodd"/><path fill="#5da48c" d="m316.17752 151.47482l0 -22.90625l4.625 0l0 10.171875l9.34375 -10.171875l6.21875 0l-8.625 8.921875l9.09375 13.984375l-5.984375 0l-6.296875 -10.75l-3.75 3.828125l0 6.921875l-4.625 0z" fill-rule="nonzero"/><path fill="#000000" fill-opacity="0.0" d="m285.6977 111.75482l35.08661 0l0 58.173233l-35.08661 0z" fill-rule="evenodd"/><path fill="#5da48c" d="m311.68207 143.05295l4.484375 1.421875q-1.03125 3.75 -3.4375 5.578125q-2.390625 1.8125 -6.078125 1.8125q-4.5625 0 -7.5 -3.109375q-2.9375 -3.125 -2.9375 -8.53125q0 -5.71875 2.953125 -8.875q2.953125 -3.171875 7.765625 -3.171875q4.203125 0 6.828125 2.484375q1.5625 1.46875 2.34375 4.21875l-4.578125 1.09375q-0.40625 -1.78125 -1.703125 -2.8125q-1.28125 -1.03125 -3.125 -1.03125q-2.546875 0 -4.140625 1.828125q-1.578125 1.828125 -1.578125 5.921875q0 4.34375 1.5625 6.1875q1.5625 1.84375 4.0625 1.84375q1.84375 0 3.171875 -1.171875q1.328125 -1.171875 1.90625 -3.6875z" fill-rule="nonzero"/><path fill="#000000" fill-opacity="0.0" d="m323.1973 111.75482l35.08661 0l0 58.173233l-35.08661 0z" fill-rule="evenodd"/><path fill="#5da48c" d="m333.35355 144.0217l4.5 -0.4375q0.40625 2.265625 1.640625 3.328125q1.25 1.0625 3.359375 1.0625q2.234375 0 3.359375 -0.9375q1.140625 -0.953125 1.140625 -2.21875q0 -0.8125 -0.484375 -1.375q-0.46875 -0.578125 -1.65625 -1.0q-0.8125 -0.28125 -3.703125 -1.0q-3.71875 -0.921875 -5.21875 -2.265625q-2.109375 -1.890625 -2.109375 -4.609375q0 -1.75 0.984375 -3.265625q1.0 -1.53125 2.859375 -2.328125q1.875 -0.796875 4.515625 -0.796875q4.3125 0 6.484375 1.890625q2.1875 1.890625 2.296875 5.046875l-4.625 0.203125q-0.296875 -1.765625 -1.28125 -2.53125q-0.96875 -0.78125 -2.921875 -0.78125q-2.015625 0 -3.15625 0.828125q-0.734375 0.53125 -0.734375 1.421875q0 0.8125 0.6875 1.390625q0.875 0.734375 4.25 1.53125q3.375 0.796875 4.984375 1.65625q1.625 0.84375 2.53125 2.328125q0.921875 1.46875 0.921875 3.640625q0 1.96875 -1.09375 3.6875q-1.09375 1.71875 -3.09375 2.5625q-2.0 0.828125 -4.984375 0.828125q-4.34375 0 -6.671875 -2.0q-2.328125 -2.015625 -2.78125 -5.859375z" fill-rule="nonzero"/><path fill="#000000" fill-opacity="0.0" d="m244.09966 115.42804l35.086624 0l0 58.173233l-35.086624 0z" fill-rule="evenodd"/><path fill="#995ba5" d="m255.55278 155.14804l0 -22.71875l4.6249847 0l0 18.859375l11.5 0l0 3.859375l-16.124985 0z" fill-rule="nonzero"/></g></svg>