<?xml version="1.0" encoding="utf-8"?>
<svg width="80" height="80" viewBox="9.6 52.267 1137.067 723.199" fill="none" stroke="none" stroke-linecap="square" stroke-miterlimit="10" xmlns="http://www.w3.org/2000/svg">
  <clipPath id="p.0">
    <path d="m0 0l1152.0 0l0 864.0l-1152.0 0l0 -864.0z" clip-rule="nonzero"/>
  </clipPath>
  <g clip-path="url(#p.0)" transform="matrix(1, 0, 0, 1, 0, 7.105427357601002e-15)">
    <path fill="#000000" fill-opacity="0.0" d="m0 0l1152.0 0l0 864.0l-1152.0 0z" fill-rule="evenodd"/>
    <path fill="#000000" fill-opacity="0.0" d="m201.28197 -28.534754l205.60631 0l0 400.75592l-205.60631 0z" fill-rule="evenodd"/>
    <path fill="#805ba5" d="m221.65697 209.26398l44.250015 -4.3125q3.984375 22.28125 16.203125 32.734375q12.21875 10.4375 32.953125 10.4375q21.96875 0 33.109375 -9.28125q11.140625 -9.296875 11.140625 -21.75q0 -7.984375 -4.6875 -13.59375q-4.6875 -5.609375 -16.359375 -9.75q-7.984375 -2.765625 -36.421875 -9.84375q-36.5625 -9.0625 -51.312515 -22.28125q-20.734375 -18.578125 -20.734375 -45.312492q0 -17.21875 9.75 -32.1875q9.765625 -14.984375 28.125015 -22.812504q18.359375 -7.84375 44.3125 -7.84375q42.40625 0 63.84375 18.593754q21.4375 18.59375 22.515625 49.625l-45.484375 2.0q-2.921875 -17.359375 -12.53125 -24.96875q-9.59375 -7.609375 -28.796875 -7.609375q-19.828125 0 -31.03125 8.140625q-7.21875 5.234375 -7.21875 13.984375q0 7.984375 6.75 13.671875q8.609375 7.2187424 41.796875 15.062492q33.1875 7.828125 49.078125 16.203125q15.90625 8.375 24.890625 22.90625q9.0 14.515625 9.0 35.859375q0 19.359375 -10.765625 36.265625q-10.75 16.90625 -30.421875 25.125q-19.65625 8.21875 -49.0 8.21875q-42.71875 0 -65.60939 -19.734375q-22.890625 -19.75 -27.34375 -57.546875z" fill-rule="nonzero"/>
    <path fill="#000000" fill-opacity="0.0" d="m182.72226 204.15112l164.0 0l0 400.75592l-164.0 0z" fill-rule="evenodd"/>
    <path fill="#805ba5" d="m395.90976 486.65298q16.75 11.984375 36.40625 19.046875l-16.734375 32.109406q-10.296875 -3.0625 -20.125 -8.4375q-2.15625 -1.078125 -30.28125 -19.984406q-22.109375 9.6875305 -49.0 9.6875305q-51.9375 0 -81.359375 -30.578156q-29.421875 -30.578125 -29.421875 -85.890625q0 -55.15625 29.5 -85.796875q29.5 -30.65625 80.046875 -30.65625q50.09375 0 79.4375 30.65625q29.34375 30.640625 29.34375 85.796875q0 29.203125 -8.140625 51.328125q-6.15625 16.890625 -19.671875 32.71875zm-36.5625 -25.65625q8.75 -10.296875 13.125 -24.890625q4.390625 -14.59375 4.390625 -33.5q0 -39.015625 -17.21875 -58.296875q-17.203125 -19.28125 -45.015625 -19.28125q-27.796875 0 -45.09375 19.359375q-17.28125 19.359375 -17.28125 58.21875q0 39.484375 17.28125 59.078125q17.296875 19.59375 43.71875 19.59375q9.828125 0 18.59375 -3.234375q-13.828125 -9.0625 -28.125 -14.125l12.75 -25.96875q22.4375 7.6875 42.875 23.046875z" fill-rule="nonzero"/>
    <path fill="#000000" fill-opacity="0.0" d="m210.15356 429.01126l181.03937 0l0 400.7559l-181.03937 0z" fill-rule="evenodd"/>
    <path fill="#5ba593" d="m243.27856 740.09125l0 -223.39062l45.46875 0l0 185.4375l113.078125 0l0 37.953125l-158.54688 0z" fill-rule="nonzero"/>
    <path fill="#000000" fill-opacity="0.0" d="m358.18076 429.31113l157.6063 0l0 400.7559l-157.6063 0z" fill-rule="evenodd"/>
    <path fill="#5ba593" d="m380.85263 629.15674q0 -34.421875 10.296875 -57.765625q7.6875 -17.21875 20.96875 -30.890625q13.296875 -13.671875 29.125 -20.28125q21.046875 -8.90625 48.546875 -8.90625q49.78128 0 79.65628 30.890625q29.890625 30.875 29.890625 85.875q0 54.546875 -29.65625 85.359375q-29.65625 30.796875 -79.28128 30.796875q-50.234375 0 -79.890625 -30.65625q-29.65625 -30.65625 -29.65625 -84.421875zm46.859375 -1.53125q0 38.25 17.671875 58.0q17.671875 19.734375 44.859375 19.734375q27.203156 0 44.640656 -19.578125q17.4375 -19.59375 17.4375 -58.78125q0 -38.71875 -16.984375 -57.765625q-16.96875 -19.046875 -45.09378 -19.046875q-28.109375 0 -45.328125 19.28125q-17.203125 19.28125 -17.203125 58.15625z" fill-rule="nonzero"/>
    <path fill="#000000" fill-opacity="0.0" d="m-22.472681 430.00583l181.03937 0l0 400.7559l-181.03937 0z" fill-rule="evenodd"/>
    <path fill="#5ba593" d="m9.574193 515.85144l90.03125 0q26.734375 0 39.859367 2.234375q13.140625 2.21875 23.515625 9.296875q10.375 7.0625 17.28125 18.8125q6.921875 11.75 6.921875 26.34375q0 15.828125 -8.53125 29.046875q-8.53125 13.203125 -23.125 19.8125q20.59375 6.0 31.65625 20.4375q11.0625 14.4375 11.0625 33.953125q0 15.359375 -7.15625 29.890625q-7.140625 14.515625 -19.515625 23.203125q-12.359375 8.671875 -30.484375 10.671875q-11.375 1.21875 -54.843742 1.53125l-76.671875 0l0 -225.23438zm45.484375 37.484375l0 52.078125l29.796879 0q26.578125 0 33.03125 -0.765625q11.687492 -1.375 18.359367 -8.0625q6.6875 -6.6875 6.6875 -17.59375q0 -10.4375 -5.765625 -16.96875q-5.75 -6.53125 -17.124992 -7.921875q-6.765625 -0.765625 -38.875 -0.765625l-26.109379 0zm0 89.578125l0 60.21875l42.093754 0q24.578125 0 31.187492 -1.375q10.140625 -1.84375 16.515625 -8.984375q6.375 -7.15625 6.375 -19.140625q0 -10.140625 -4.921875 -17.203125q-4.90625 -7.0625 -14.203125 -10.28125q-9.296867 -3.234375 -40.328117 -3.234375l-36.718754 0z" fill-rule="nonzero"/>
    <path fill="#000000" fill-opacity="0.0" d="m761.94855 430.18478l181.03937 0l0 400.7559l-181.03937 0z" fill-rule="evenodd"/>
    <path fill="#5ba593" d="m794.44855 741.2648l0 -225.23438l45.484375 0l0 100.015625l91.875 -100.015625l61.15625 0l-84.8125 87.71875l89.421875 137.51562l-58.84375 0l-61.921875 -105.703125l-36.875 37.640625l0 68.0625l-45.484375 0z" fill-rule="nonzero"/>
    <path fill="#000000" fill-opacity="0.0" d="m575.0987 430.20938l181.03937 0l0 400.7559l-181.03937 0z" fill-rule="evenodd"/>
    <path fill="#5ba593" d="m751.0987 658.47687l44.109375 13.984375q-10.140625 36.875 -33.734375 54.78125q-23.578125 17.890625 -59.84375 17.890625q-44.859375 0 -73.75 -30.65625q-28.875 -30.65625 -28.875 -83.8125q0 -56.234375 29.03125 -87.34375q29.046875 -31.109375 76.359375 -31.109375q41.328125 0 67.140625 24.421875q15.375 14.453125 23.046875 41.484375l-45.015625 10.765625q-4.0 -17.515625 -16.671875 -27.65625q-12.671875 -10.140625 -30.796875 -10.140625q-25.046875 0 -40.640625 17.984375q-15.59375 17.96875 -15.59375 58.21875q0 42.703125 15.359375 60.84375q15.359375 18.125 39.953125 18.125q18.125 0 31.1875 -11.515625q13.0625 -11.53125 18.734375 -36.265625z" fill-rule="nonzero"/>
    <path fill="#000000" fill-opacity="0.0" d="m941.8756 429.50583l181.0393 0l0 400.7559l-181.0393 0z" fill-rule="evenodd"/>
    <path fill="#5ba593" d="m962.2506 667.30457l44.25 -4.3125q3.984375 22.28125 16.203125 32.734375q12.21875 10.4375 32.953125 10.4375q21.96875 0 33.109375 -9.28125q11.140625 -9.296875 11.140625 -21.75q0 -7.984375 -4.6875 -13.59375q-4.6875 -5.609375 -16.359375 -9.75q-7.984375 -2.765625 -36.421875 -9.84375q-36.5625 -9.0625 -51.3125 -22.28125q-20.734375 -18.578125 -20.734375 -45.3125q0 -17.21875 9.75 -32.1875q9.765625 -14.984375 28.125 -22.8125q18.359375 -7.84375 44.3125 -7.84375q42.40625 0 63.84375 18.59375q21.4375 18.59375 22.515625 49.625l-45.484375 2.0q-2.921875 -17.359375 -12.53125 -24.96875q-9.59375 -7.609375 -28.796875 -7.609375q-19.828125 0 -31.03125 8.140625q-7.21875 5.234375 -7.21875 13.984375q0 7.984375 6.75 13.671875q8.609375 7.21875 41.796875 15.0625q33.1875 7.828125 49.078125 16.203125q15.90625 8.375 24.890625 22.90625q9.0 14.515625 9.0 35.859375q0 19.359375 -10.765625 36.265625q-10.75 16.90625 -30.421875 25.125q-19.65625 8.21875 -49.0 8.21875q-42.71875 0 -65.609375 -19.734375q-22.890625 -19.75 -27.34375 -57.546875z" fill-rule="nonzero"/>
    <path fill="#000000" fill-opacity="0.0" d="m164.75322 465.56714l181.03935 0l0 400.75592l-181.03935 0z" fill-rule="evenodd"/>
    <path fill="#805ba5" d="m197.87822 776.64716l0 -223.39062l45.46875 0l0 185.4375l113.07811 0l0 37.953125l-158.54686 0z" fill-rule="nonzero"/>
  </g>
</svg>