<svg version="1.1" viewBox="0.0 0.0 1152.0 864.0" fill="none" stroke="none" stroke-linecap="square" stroke-miterlimit="10" xmlns:xlink="http://www.w3.org/1999/xlink" xmlns="http://www.w3.org/2000/svg"><clipPath id="p.0"><path d="m0 0l1152.0 0l0 864.0l-1152.0 0l0 -864.0z" clip-rule="nonzero"/></clipPath><g clip-path="url(#p.0)"><path fill="#000000" fill-opacity="0.0" d="m0 0l1152.0 0l0 864.0l-1152.0 0z" fill-rule="evenodd"/><path fill="#805ba6" d="m379.45605 109.26744l281.85828 275.33856l-285.5106 278.89893l-281.85828 -275.3386z" fill-rule="evenodd"/><path fill="#997bb7" d="m379.45667 17.488544l375.81104 367.1181l-93.95337 -6.4086914E-4l-281.85828 -275.33856z" fill-rule="evenodd"/><path fill="#664884" d="m-0.007893701 388.1657l93.95338 6.4086914E-4l281.85828 275.3386l-6.1035156E-4 91.77887z" fill-rule="evenodd"/><path fill="#b29cc9" d="m379.45667 17.488544l-6.1035156E-4 91.7789l-285.51056 278.89893l-93.95338 -6.4086914E-4z" fill-rule="evenodd"/><path fill="#4c3663" d="m755.2677 384.60666l-379.46457 370.67715l6.1035156E-4 -91.77887l285.5106 -278.89893z" fill-rule="evenodd"/><path fill="#000000" fill-opacity="0.0" d="m379.45667 17.488544l375.81104 367.1181l-379.46457 370.67715l-375.81104 -367.1181zm-6.1035156E-4 91.7789l281.85828 275.33856l-285.5106 278.89893l-281.85828 -275.3386zm6.1035156E-4 -91.7789l-6.1035156E-4 91.7789m-379.46396 278.89825l93.95338 6.4086914E-4m661.3222 -3.5596924l-93.95337 -6.4086914E-4m-285.5112 370.6778l6.1035156E-4 -91.77887" fill-rule="evenodd"/><path stroke="#000000" stroke-width="1.0" stroke-linejoin="round" stroke-linecap="butt" d="m379.45667 17.488544l375.81104 367.1181l-379.46457 370.67715l-375.81104 -367.1181zm-6.1035156E-4 91.7789l281.85828 275.33856l-285.5106 278.89893l-281.85828 -275.3386zm6.1035156E-4 -91.7789l-6.1035156E-4 91.7789m-379.46396 278.89825l93.95338 6.4086914E-4m661.3222 -3.5596924l-93.95337 -6.4086914E-4m-285.5112 370.6778l6.1035156E-4 -91.77887" fill-rule="evenodd"/><path fill="#000000" fill-opacity="0.0" d="m182.95273 295.91864l389.35434 0l0 146.99213l-389.35434 0z" fill-rule="evenodd"/><path fill="#ffffff" d="m380.66116 372.89664q0 1.4375 -0.5 2.5625q-0.5 1.125 -1.34375 1.875q-0.84375 0.75 -2.0 1.09375q-1.15625 0.34375 -2.34375 0.34375l-7.0 0q-2.1875 0 -3.78125 -0.4375q-1.59375 -0.4375 -2.9375 -1.59375q-1.34375 -1.15625 -2.59375 -3.125q-1.25 -1.96875 -2.8125 -5.09375l-20.125 -37.8125q-1.75 -3.375 -3.5625 -7.28125q-1.8125 -3.90625 -3.25 -7.59375l-0.125 0q0.25 4.5 0.375 8.96875q0.125 4.46875 0.125 9.21875l0 42.3125q0 0.625 -0.34375 1.125q-0.34375 0.5 -1.1875 0.84375q-0.84375 0.34375 -2.28125 0.53125q-1.4375 0.1875 -3.6875 0.1875q-2.1875 0 -3.625 -0.1875q-1.4375 -0.1875 -2.25 -0.53125q-0.8125 -0.34375 -1.125 -0.84375q-0.3125 -0.5 -0.3125 -1.125l0 -72.6875q0 -2.9375 1.71875 -4.40625q1.71875 -1.46875 4.21875 -1.46875l8.8125 0q2.375 0 4.0 0.40625q1.625 0.40625 2.90625 1.34375q1.28125 0.9375 2.40625 2.59375q1.125 1.65625 2.3125 4.09375l15.75 29.5625q1.375 2.6875 2.71875 5.28125q1.34375 2.59375 2.59375 5.1875q1.25 2.59375 2.4375 5.09375q1.1875 2.5 2.3125 5.0l0.0625 0q-0.1875 -4.375 -0.28125 -9.125q-0.09375 -4.75 -0.09375 -9.0625l0 -37.9375q0 -0.625 0.375 -1.125q0.375 -0.5 1.25 -0.875q0.875 -0.375 2.3125 -0.53125q1.4375 -0.15625 3.6875 -0.15625q2.125 0 3.5625 0.15625q1.4375 0.15625 2.21875 0.53125q0.78125 0.375 1.09375 0.875q0.3125 0.5 0.3125 1.125l0 72.6875zm49.0 5.75l-6.75 19.75q-0.5625 1.5625 -3.0625 2.25q-2.5 0.6875 -7.3125 0.6875q-2.5 0 -4.0 -0.21875q-1.5 -0.21875 -2.25 -0.71875q-0.75 -0.5 -0.8125 -1.25q-0.0625 -0.75 0.375 -1.8125l7.4375 -18.6875q-0.8125 -0.375 -1.46875 -1.15625q-0.65625 -0.78125 -0.96875 -1.65625l-19.1875 -51.25q-0.8125 -2.1875 -0.8125 -3.34375q0 -1.15625 0.75 -1.8125q0.75 -0.65625 2.53125 -0.90625q1.78125 -0.25 4.71875 -0.25q2.6875 0 4.25 0.09375q1.5625 0.09375 2.4375 0.46875q0.875 0.375 1.3125 1.15625q0.4375 0.78125 0.875 2.21875l13.125 37.3125l0.1875 0l12.0 -38.0625q0.375 -1.625 0.96875 -2.15625q0.59375 -0.53125 1.96875 -0.78125q1.375 -0.25 4.8125 -0.25q2.6875 0 4.46875 0.25q1.78125 0.25 2.625 0.9375q0.84375 0.6875 0.84375 1.84375q0 1.15625 -0.5 2.71875l-18.5625 54.625z" fill-rule="nonzero"/><path fill="#ffffff" d="m283.0674 463.18164q0 2.75 -0.34375 4.21875q-0.34375 1.46875 -0.90625 2.0625q-0.5625 0.59375 -1.65625 1.0625q-1.09375 0.46875 -2.5625 0.8125q-1.46875 0.34375 -3.1875 0.53125q-1.71875 0.1875 -3.46875 0.1875q-4.6875 0 -8.125 -1.1875q-3.4375 -1.1875 -5.6875 -3.65625q-2.2500153 -2.46875 -3.3125153 -6.21875q-1.0625 -3.75 -1.0625 -8.875l0 -28.5625l-6.6875 0q-1.1875 0 -1.8125 -1.46875q-0.625 -1.46875 -0.625 -4.90625q0 -1.8125 0.15625 -3.0625q0.15625 -1.25 0.46875 -1.96875q0.3125 -0.71875 0.78125 -1.03125q0.46875 -0.3125 1.09375 -0.3125l6.625 0l0 -12.4375q0 -0.625 0.34375 -1.125q0.34375 -0.5 1.25 -0.84375q0.90625 -0.34375 2.4375153 -0.5q1.53125 -0.15625 3.78125 -0.15625q2.3125 0 3.84375 0.15625q1.53125 0.15625 2.40625 0.5q0.875 0.34375 1.25 0.84375q0.375 0.5 0.375 1.125l0 12.4375l12.125 0q0.625 0 1.09375 0.3125q0.46875 0.3125 0.78125 1.03125q0.3125 0.71875 0.46875 1.96875q0.15625 1.25 0.15625 3.0625q0 3.4375 -0.625 4.90625q-0.625 1.46875 -1.8125 1.46875l-12.1875 0l0 26.1875q0 4.5625 1.4375 6.84375q1.4375 2.28125 5.125 2.28125q1.25 0 2.25 -0.21875q1.0 -0.21875 1.78125 -0.5q0.78125 -0.28125 1.3125 -0.5q0.53125 -0.21875 0.96875 -0.21875q0.375 0 0.71875 0.21875q0.34375 0.21875 0.53125 0.875q0.1875 0.65625 0.34375 1.78125q0.15625 1.125 0.15625 2.875zm57.625 5.6875q0 0.875 -0.625 1.375q-0.625 0.5 -1.96875 0.71875q-1.34375 0.21875 -3.96875 0.21875q-2.8125 0 -4.09375 -0.21875q-1.28125 -0.21875 -1.8125 -0.71875q-0.53125 -0.5 -0.53125 -1.375l0 -4.4375q-3.4375 3.6875 -7.84375 5.75q-4.40625 2.0625 -9.78125 2.0625q-4.4375 0 -8.15625 -1.15625q-3.71875 -1.15625 -6.4375 -3.4375q-2.71875 -2.28125 -4.21875 -5.65625q-1.5 -3.375 -1.5 -7.875q0 -4.875 1.90625 -8.46875q1.90625 -3.59375 5.6875 -5.9375q3.78125 -2.34375 9.40625 -3.46875q5.625 -1.125 13.0625 -1.125l5.4375 0l0 -3.375q0 -2.625 -0.53125 -4.59375q-0.53125 -1.96875 -1.75 -3.28125q-1.21875 -1.3125 -3.25 -1.9375q-2.03125 -0.625 -5.03125 -0.625q-3.9375 0 -7.03125 0.875q-3.09375 0.875 -5.46875 1.9375q-2.375 1.0625 -3.96875 1.9375q-1.59375 0.875 -2.59375 0.875q-0.6875 0 -1.21875 -0.4375q-0.53125 -0.4375 -0.875 -1.25q-0.34375 -0.8125 -0.53125 -2.0q-0.1875 -1.1875 -0.1875 -2.625q0 -1.9375 0.3125 -3.0625q0.3125 -1.125 1.1875 -2.03125q0.875 -0.90625 3.0625 -2.0q2.1875 -1.09375 5.125 -2.03125q2.9375 -0.9375 6.40625 -1.53125q3.46875 -0.59375 7.15625 -0.59375q6.5625 0 11.21875 1.28125q4.65625 1.28125 7.65625 3.9375q3.0 2.65625 4.375 6.84375q1.375 4.1875 1.375 9.9375l0 37.5zm-15.4375 -23.875l-6.0 0q-3.8125 0 -6.5 0.5625q-2.6875 0.5625 -4.375 1.6875q-1.6875 1.125 -2.46875 2.71875q-0.78125 1.59375 -0.78125 3.65625q0 3.5 2.21875 5.5q2.21875 2.0 6.15625 2.0q3.3125 0 6.09375 -1.6875q2.78125 -1.6875 5.65625 -4.9375l0 -9.5zm87.25 -4.9375q0 7.4375 -1.625 13.375q-1.625 5.9375 -4.6875 10.125q-3.0625 4.1875 -7.53125 6.4375q-4.46875 2.25 -10.15625 2.25q-2.8125 0 -5.25 -0.53125q-2.4375 -0.53125 -4.65625 -1.71875q-2.21875 -1.1875 -4.375 -3.0q-2.15625 -1.8125 -4.40625 -4.375l0 6.0625q0 0.6875 -0.34375 1.15625q-0.34375 0.46875 -1.125 0.78125q-0.78125 0.3125 -2.09375 0.4375q-1.3125 0.125 -3.1875 0.125q-1.9375 0 -3.21875 -0.125q-1.28125 -0.125 -2.0625 -0.4375q-0.78125 -0.3125 -1.09375 -0.78125q-0.3125 -0.46875 -0.3125 -1.15625l0 -82.1875q0 -0.625 0.375 -1.125q0.375 -0.5 1.28125 -0.84375q0.90625 -0.34375 2.40625 -0.53125q1.5 -0.1875 3.8125 -0.1875q2.3125 0 3.8125 0.1875q1.5 0.1875 2.40625 0.53125q0.90625 0.34375 1.28125 0.84375q0.375 0.5 0.375 1.125l0 30.8125q2.125 -2.125 4.25 -3.625q2.125 -1.5 4.25 -2.46875q2.125 -0.96875 4.375 -1.40625q2.25 -0.4375 4.75 -0.4375q6.1875 0 10.5 2.46875q4.3125 2.46875 7.03125 6.65625q2.71875 4.1875 3.96875 9.78125q1.25 5.59375 1.25 11.78125zm-16.3125 1.125q0 -3.5625 -0.53125 -6.875q-0.53125 -3.3125 -1.84375 -5.875q-1.3125 -2.5625 -3.40625 -4.09375q-2.09375 -1.53125 -5.28125 -1.53125q-1.5625 0 -3.0625 0.4375q-1.5 0.4375 -3.09375 1.5q-1.59375 1.0625 -3.28125 2.75q-1.6875 1.6875 -3.5625 4.1875l0 18.5q3.3125 4.25 6.34375 6.46875q3.03125 2.21875 6.34375 2.21875q3.0625 0 5.1875 -1.5625q2.125 -1.5625 3.53125 -4.0625q1.40625 -2.5 2.03125 -5.6875q0.625 -3.1875 0.625 -6.375zm80.375 -2.0q0 2.875 -1.28125 4.25q-1.28125 1.375 -3.53125 1.375l-33.9375 0q0 3.5625 0.84375 6.46875q0.84375 2.90625 2.6875 4.9375q1.84375 2.03125 4.75 3.09375q2.90625 1.0625 6.96875 1.0625q4.125 0 7.25 -0.59375q3.125 -0.59375 5.40625 -1.3125q2.28125 -0.71875 3.78125 -1.3125q1.5 -0.59375 2.4375 -0.59375q0.5625 0 0.9375 0.21875q0.375 0.21875 0.625 0.78125q0.25 0.5625 0.34375 1.59375q0.09375 1.03125 0.09375 2.59375q0 1.375 -0.0625 2.34375q-0.0625 0.96875 -0.1875 1.65625q-0.125 0.6875 -0.375 1.15625q-0.25 0.46875 -0.65625 0.90625q-0.40625 0.4375 -2.21875 1.1875q-1.8125 0.75 -4.625 1.46875q-2.8125 0.71875 -6.4375 1.25q-3.625 0.53125 -7.75 0.53125q-7.4375 0 -13.03125 -1.875q-5.59375 -1.875 -9.34375 -5.6875q-3.75 -3.8125 -5.59375 -9.625q-1.84375 -5.8125 -1.84375 -13.625q0 -7.4375 1.9375 -13.40625q1.9375 -5.96875 5.625 -10.125q3.6875 -4.15625 8.96875 -6.34375q5.28125 -2.1875 11.90625 -2.1875q7.0 0 11.96875 2.0625q4.96875 2.0625 8.15625 5.71875q3.1875 3.65625 4.6875 8.65625q1.5 5.0 1.5 10.875l0 2.5zm-15.25 -4.5q0.1875 -6.625 -2.65625 -10.40625q-2.84375 -3.78125 -8.78125 -3.78125q-3.0 0 -5.21875 1.125q-2.21875 1.125 -3.6875 3.03125q-1.46875 1.90625 -2.25 4.5q-0.78125 2.59375 -0.90625 5.53125l23.5 0zm43.9375 34.0q0 0.625 -0.375 1.09375q-0.375 0.46875 -1.28125 0.78125q-0.90625 0.3125 -2.40625 0.46875q-1.5 0.15625 -3.8125 0.15625q-2.3125 0 -3.8125 -0.15625q-1.5 -0.15625 -2.40625 -0.46875q-0.90625 -0.3125 -1.28125 -0.78125q-0.375 -0.46875 -0.375 -1.09375l0 -82.1875q0 -0.625 0.375 -1.125q0.375 -0.5 1.28125 -0.84375q0.90625 -0.34375 2.40625 -0.53125q1.5 -0.1875 3.8125 -0.1875q2.3125 0 3.8125 0.1875q1.5 0.1875 2.40625 0.53125q0.90625 0.34375 1.28125 0.84375q0.375 0.5 0.375 1.125l0 82.1875z" fill-rule="nonzero"/></g></svg>