<svg version="1.1" viewBox="0.0 0.0 1152.0 864.0" fill="none" stroke="none" stroke-linecap="square" stroke-miterlimit="10" xmlns:xlink="http://www.w3.org/1999/xlink" xmlns="http://www.w3.org/2000/svg"><clipPath id="p.0"><path d="m0 0l1152.0 0l0 864.0l-1152.0 0l0 -864.0z" clip-rule="nonzero"/></clipPath><g clip-path="url(#p.0)"><path fill="#000000" fill-opacity="0.0" d="m0 0l1152.0 0l0 864.0l-1152.0 0z" fill-rule="evenodd"/><path fill="#5a81a5" d="m379.45605 109.26744l281.85828 275.33856l-285.5106 278.89893l-281.85828 -275.3386z" fill-rule="evenodd"/><path fill="#7b9ab7" d="m379.45667 17.488544l375.81104 367.1181l-93.95337 -6.4086914E-4l-281.85828 -275.33856z" fill-rule="evenodd"/><path fill="#476783" d="m-0.007893701 388.1657l93.95338 6.4086914E-4l281.85828 275.3386l-6.1035156E-4 91.77887z" fill-rule="evenodd"/><path fill="#9cb3c9" d="m379.45667 17.488544l-6.1035156E-4 91.7789l-285.51056 278.89893l-93.95338 -6.4086914E-4z" fill-rule="evenodd"/><path fill="#354d62" d="m755.2677 384.60666l-379.46457 370.67715l6.1035156E-4 -91.77887l285.5106 -278.89893z" fill-rule="evenodd"/><path fill="#000000" fill-opacity="0.0" d="m379.45667 17.488544l375.81104 367.1181l-379.46457 370.67715l-375.81104 -367.1181zm-6.1035156E-4 91.7789l281.85828 275.33856l-285.5106 278.89893l-281.85828 -275.3386zm6.1035156E-4 -91.7789l-6.1035156E-4 91.7789m-379.46396 278.89825l93.95338 6.4086914E-4m661.3222 -3.5596924l-93.95337 -6.4086914E-4m-285.5112 370.6778l6.1035156E-4 -91.77887" fill-rule="evenodd"/><path stroke="#000000" stroke-width="1.0" stroke-linejoin="round" stroke-linecap="butt" d="m379.45667 17.488544l375.81104 367.1181l-379.46457 370.67715l-375.81104 -367.1181zm-6.1035156E-4 91.7789l281.85828 275.33856l-285.5106 278.89893l-281.85828 -275.3386zm6.1035156E-4 -91.7789l-6.1035156E-4 91.7789m-379.46396 278.89825l93.95338 6.4086914E-4m661.3222 -3.5596924l-93.95337 -6.4086914E-4m-285.5112 370.6778l6.1035156E-4 -91.77887" fill-rule="evenodd"/><path fill="#000000" fill-opacity="0.0" d="m182.95273 295.91864l389.35434 0l0 146.99213l-389.35434 0z" fill-rule="evenodd"/><path fill="#ffffff" d="m350.16116 354.39664q0 6.375 -2.375 11.1875q-2.375 4.8125 -6.4375 8.03125q-4.0625 3.21875 -9.5 4.84375q-5.4375 1.625 -11.625 1.625q-4.1875 0 -7.78125 -0.6875q-3.59375 -0.6875 -6.34375 -1.65625q-2.75 -0.96875 -4.59375 -2.03125q-1.84375 -1.0625 -2.65625 -1.875q-0.8125 -0.8125 -1.15625 -2.34375q-0.34375 -1.53125 -0.34375 -4.40625q0 -1.9375 0.125 -3.25q0.125 -1.3125 0.40625 -2.125q0.28125 -0.8125 0.75 -1.15625q0.46875 -0.34375 1.09375 -0.34375q0.875 0 2.46875 1.03125q1.59375 1.03125 4.09375 2.28125q2.5 1.25 5.96875 2.28125q3.46875 1.03125 8.03125 1.03125q3.0 0 5.375 -0.71875q2.375 -0.71875 4.03125 -2.03125q1.65625 -1.3125 2.53125 -3.25q0.875 -1.9375 0.875 -4.3125q0 -2.75 -1.5 -4.71875q-1.5 -1.96875 -3.90625 -3.5q-2.40625 -1.53125 -5.46875 -2.875q-3.0625 -1.34375 -6.3125 -2.84375q-3.25 -1.5 -6.3125 -3.40625q-3.0625 -1.90625 -5.46875 -4.5625q-2.40625 -2.65625 -3.90625 -6.28125q-1.5 -3.625 -1.5 -8.6875q0 -5.8125 2.15625 -10.21875q2.15625 -4.40625 5.8125 -7.3125q3.65625 -2.90625 8.625 -4.34375q4.96875 -1.4375 10.53125 -1.4375q2.875 0 5.75 0.4375q2.875 0.4375 5.375 1.1875q2.5 0.75 4.4375 1.6875q1.9375 0.9375 2.5625 1.5625q0.625 0.625 0.84375 1.0625q0.21875 0.4375 0.375 1.15625q0.15625 0.71875 0.21875 1.8125q0.0625 1.09375 0.0625 2.71875q0 1.8125 -0.09375 3.0625q-0.09375 1.25 -0.3125 2.0625q-0.21875 0.8125 -0.625 1.1875q-0.40625 0.375 -1.09375 0.375q-0.6875 0 -2.1875 -0.875q-1.5 -0.875 -3.6875 -1.90625q-2.1875 -1.03125 -5.0625 -1.875q-2.875 -0.84375 -6.3125 -0.84375q-2.6875 0 -4.6875 0.65625q-2.0 0.65625 -3.34375 1.8125q-1.34375 1.15625 -2.0 2.78125q-0.65625 1.625 -0.65625 3.4375q0 2.6875 1.46875 4.65625q1.46875 1.96875 3.9375 3.5q2.46875 1.53125 5.59375 2.875q3.125 1.34375 6.375 2.84375q3.25 1.5 6.375 3.40625q3.125 1.90625 5.5625 4.5625q2.4375 2.65625 3.9375 6.25q1.5 3.59375 1.5 8.46875zm63.125 -7.375q0 2.875 -1.28125 4.25q-1.28125 1.375 -3.53125 1.375l-33.9375 0q0 3.5625 0.84375 6.46875q0.84375 2.90625 2.6875 4.9375q1.84375 2.03125 4.75 3.09375q2.90625 1.0625 6.96875 1.0625q4.125 0 7.25 -0.59375q3.125 -0.59375 5.40625 -1.3125q2.28125 -0.71875 3.78125 -1.3125q1.5 -0.59375 2.4375 -0.59375q0.5625 0 0.9375 0.21875q0.375 0.21875 0.625 0.78125q0.25 0.5625 0.34375 1.59375q0.09375 1.03125 0.09375 2.59375q0 1.375 -0.0625 2.34375q-0.0625 0.96875 -0.1875 1.65625q-0.125 0.6875 -0.375 1.15625q-0.25 0.46875 -0.65625 0.90625q-0.40625 0.4375 -2.21875 1.1875q-1.8125 0.75 -4.625 1.46875q-2.8125 0.71875 -6.4375 1.25q-3.625 0.53125 -7.75 0.53125q-7.4375 0 -13.03125 -1.875q-5.59375 -1.875 -9.34375 -5.6875q-3.75 -3.8125 -5.59375 -9.625q-1.84375 -5.8125 -1.84375 -13.625q0 -7.4375 1.9375 -13.40625q1.9375 -5.96875 5.625 -10.125q3.6875 -4.15625 8.96875 -6.34375q5.28125 -2.1875 11.90625 -2.1875q7.0 0 11.96875 2.0625q4.96875 2.0625 8.15625 5.71875q3.1875 3.65625 4.6875 8.65625q1.5 5.0 1.5 10.875l0 2.5zm-15.25 -4.5q0.1875 -6.625 -2.65625 -10.40625q-2.84375 -3.78125 -8.78125 -3.78125q-3.0 0 -5.21875 1.125q-2.21875 1.125 -3.6875 3.03125q-1.46875 1.90625 -2.25 4.5q-0.78125 2.59375 -0.90625 5.53125l23.5 0zm60.3125 28.5q0 2.75 -0.34375 4.21875q-0.34375 1.46875 -0.90625 2.0625q-0.5625 0.59375 -1.65625 1.0625q-1.09375 0.46875 -2.5625 0.8125q-1.46875 0.34375 -3.1875 0.53125q-1.71875 0.1875 -3.46875 0.1875q-4.6875 0 -8.125 -1.1875q-3.4375 -1.1875 -5.6875 -3.65625q-2.25 -2.46875 -3.3125 -6.21875q-1.0625 -3.75 -1.0625 -8.875l0 -28.5625l-6.6875 0q-1.1875 0 -1.8125 -1.46875q-0.625 -1.46875 -0.625 -4.90625q0 -1.8125 0.15625 -3.0625q0.15625 -1.25 0.46875 -1.96875q0.3125 -0.71875 0.78125 -1.03125q0.46875 -0.3125 1.09375 -0.3125l6.625 0l0 -12.4375q0 -0.625 0.34375 -1.125q0.34375 -0.5 1.25 -0.84375q0.90625 -0.34375 2.4375 -0.5q1.53125 -0.15625 3.78125 -0.15625q2.3125 0 3.84375 0.15625q1.53125 0.15625 2.40625 0.5q0.875 0.34375 1.25 0.84375q0.375 0.5 0.375 1.125l0 12.4375l12.125 0q0.625 0 1.09375 0.3125q0.46875 0.3125 0.78125 1.03125q0.3125 0.71875 0.46875 1.96875q0.15625 1.25 0.15625 3.0625q0 3.4375 -0.625 4.90625q-0.625 1.46875 -1.8125 1.46875l-12.1875 0l0 26.1875q0 4.5625 1.4375 6.84375q1.4375 2.28125 5.125 2.28125q1.25 0 2.25 -0.21875q1.0 -0.21875 1.78125 -0.5q0.78125 -0.28125 1.3125 -0.5q0.53125 -0.21875 0.96875 -0.21875q0.375 0 0.71875 0.21875q0.34375 0.21875 0.53125 0.875q0.1875 0.65625 0.34375 1.78125q0.15625 1.125 0.15625 2.875z" fill-rule="nonzero"/><path fill="#ffffff" d="m289.84866 412.86914q0 0.3125 -0.03125 0.75q-0.03125 0.4375 -0.125 0.96875q-0.09375 0.53125 -0.25 1.21875q-0.15625 0.6875 -0.40625 1.5625l-16.75 50.4375q-0.3125 1.0625 -0.84375 1.71875q-0.53125 0.65625 -1.75 1.03125q-1.21875 0.375 -3.3125 0.5q-2.09375 0.125 -5.46875 0.125q-3.3125 0 -5.4062653 -0.15625q-2.09375 -0.15625 -3.28125 -0.53125q-1.1875 -0.375 -1.71875 -1.03125q-0.53125 -0.65625 -0.84375 -1.65625l-16.75 -50.4375q-0.375 -1.25 -0.59375 -2.25q-0.21875 -1.0 -0.25 -1.4375q-0.03125 -0.4375 -0.03125 -0.8125q0 -0.625 0.34375 -1.09375q0.34375 -0.46875 1.21875 -0.78125q0.875 -0.3125 2.40625 -0.4375q1.53125 -0.125 3.84375 -0.125q2.5625 0 4.125 0.15625q1.5625 0.15625 2.46875 0.4375q0.90625 0.28125 1.28125 0.8125q0.375 0.53125 0.625 1.28125l12.687515 40.9375l0.375 1.5625l0.375 -1.5625l12.5 -40.9375q0.1875 -0.75 0.59375 -1.28125q0.40625 -0.53125 1.28125 -0.8125q0.875 -0.28125 2.34375 -0.4375q1.46875 -0.15625 3.84375 -0.15625q2.3125 0 3.78125 0.125q1.46875 0.125 2.28125 0.4375q0.8125 0.3125 1.125 0.78125q0.3125 0.46875 0.3125 1.09375zm25.0 55.8125q0 0.625 -0.375 1.09375q-0.375 0.46875 -1.28125 0.78125q-0.90625 0.3125 -2.40625 0.46875q-1.5 0.15625 -3.8125 0.15625q-2.3125 0 -3.8125 -0.15625q-1.5 -0.15625 -2.40625 -0.46875q-0.90625 -0.3125 -1.28125 -0.78125q-0.375 -0.46875 -0.375 -1.09375l0 -55.625q0 -0.625 0.375 -1.09375q0.375 -0.46875 1.28125 -0.8125q0.90625 -0.34375 2.40625 -0.53125q1.5 -0.1875 3.8125 -0.1875q2.3125 0 3.8125 0.1875q1.5 0.1875 2.40625 0.53125q0.90625 0.34375 1.28125 0.8125q0.375 0.46875 0.375 1.09375l0 55.625zm1.1875 -74.625q0 4.75 -1.9375 6.5625q-1.9375 1.8125 -7.1875 1.8125q-5.3125 0 -7.15625 -1.75q-1.84375 -1.75 -1.84375 -6.3125q0 -4.75 1.90625 -6.59375q1.90625 -1.84375 7.21875 -1.84375q5.25 0 7.125 1.78125q1.875 1.78125 1.875 6.34375zm67.375 74.625q0 0.6875 -0.3125 1.15625q-0.3125 0.46875 -1.0625 0.78125q-0.75 0.3125 -2.03125 0.4375q-1.28125 0.125 -3.15625 0.125q-2.0 0 -3.25 -0.125q-1.25 -0.125 -2.03125 -0.4375q-0.78125 -0.3125 -1.125 -0.78125q-0.34375 -0.46875 -0.34375 -1.15625l0 -6.1875q-4.3125 4.625 -9.03125 7.1875q-4.71875 2.5625 -10.46875 2.5625q-6.375 0 -10.78125 -2.46875q-4.40625 -2.46875 -7.1875 -6.65625q-2.78125 -4.1875 -4.03125 -9.78125q-1.25 -5.59375 -1.25 -11.78125q0 -7.4375 1.59375 -13.375q1.59375 -5.9375 4.65625 -10.125q3.0625 -4.1875 7.625 -6.4375q4.5625 -2.25 10.5 -2.25q4.6875 0 8.5 1.90625q3.8125 1.90625 7.5625 5.59375l0 -30.1875q0 -0.625 0.34375 -1.125q0.34375 -0.5 1.25 -0.84375q0.90625 -0.34375 2.40625 -0.53125q1.5 -0.1875 3.8125 -0.1875q2.3125 0 3.8125 0.1875q1.5 0.1875 2.375 0.53125q0.875 0.34375 1.25 0.84375q0.375 0.5 0.375 1.125l0 82.0zm-15.625 -37.25q-3.375 -4.25 -6.46875 -6.5q-3.09375 -2.25 -6.46875 -2.25q-3.0625 0 -5.28125 1.53125q-2.21875 1.53125 -3.5625 4.09375q-1.34375 2.5625 -2.0 5.71875q-0.65625 3.15625 -0.65625 6.46875q0 3.5 0.5625 6.8125q0.5625 3.3125 1.84375 5.90625q1.28125 2.59375 3.40625 4.15625q2.125 1.5625 5.375 1.5625q1.625 0 3.15625 -0.46875q1.53125 -0.46875 3.125 -1.53125q1.59375 -1.0625 3.28125 -2.78125q1.6875 -1.71875 3.6875 -4.21875l0 -18.5zm82.9375 7.75q0 2.875 -1.28125 4.25q-1.28125 1.375 -3.53125 1.375l-33.9375 0q0 3.5625 0.84375 6.46875q0.84375 2.90625 2.6875 4.9375q1.84375 2.03125 4.75 3.09375q2.90625 1.0625 6.96875 1.0625q4.125 0 7.25 -0.59375q3.125 -0.59375 5.40625 -1.3125q2.28125 -0.71875 3.78125 -1.3125q1.5 -0.59375 2.4375 -0.59375q0.5625 0 0.9375 0.21875q0.375 0.21875 0.625 0.78125q0.25 0.5625 0.34375 1.59375q0.09375 1.03125 0.09375 2.59375q0 1.375 -0.0625 2.34375q-0.0625 0.96875 -0.1875 1.65625q-0.125 0.6875 -0.375 1.15625q-0.25 0.46875 -0.65625 0.90625q-0.40625 0.4375 -2.21875 1.1875q-1.8125 0.75 -4.625 1.46875q-2.8125 0.71875 -6.4375 1.25q-3.625 0.53125 -7.75 0.53125q-7.4375 0 -13.03125 -1.875q-5.59375 -1.875 -9.34375 -5.6875q-3.75 -3.8125 -5.59375 -9.625q-1.84375 -5.8125 -1.84375 -13.625q0 -7.4375 1.9375 -13.40625q1.9375 -5.96875 5.625 -10.125q3.6875 -4.15625 8.96875 -6.34375q5.28125 -2.1875 11.90625 -2.1875q7.0 0 11.96875 2.0625q4.96875 2.0625 8.15625 5.71875q3.1875 3.65625 4.6875 8.65625q1.5 5.0 1.5 10.875l0 2.5zm-15.25 -4.5q0.1875 -6.625 -2.65625 -10.40625q-2.84375 -3.78125 -8.78125 -3.78125q-3.0 0 -5.21875 1.125q-2.21875 1.125 -3.6875 3.03125q-1.46875 1.90625 -2.25 4.5q-0.78125 2.59375 -0.90625 5.53125l23.5 0zm84.56253 5.5625q0 7.125 -1.875 13.0q-1.875 5.875 -5.6875 10.125q-3.8125305 4.25 -9.5625305 6.5625q-5.75 2.3125 -13.4375 2.3125q-7.4375 0 -12.9375 -2.0625q-5.5 -2.0625 -9.125 -6.0q-3.625 -3.9375 -5.375 -9.6875q-1.75 -5.75 -1.75 -13.125q0 -7.125 1.90625 -13.03125q1.90625 -5.90625 5.71875 -10.125q3.8125 -4.21875 9.53125 -6.53125q5.71875 -2.3125 13.40625 -2.3125q7.5 0 13.0 2.03125q5.5 2.03125 9.0937805 5.96875q3.59375 3.9375 5.34375 9.6875q1.75 5.75 1.75 13.1875zm-16.18753 0.625q0 -4.125 -0.65625 -7.59375q-0.65625 -3.46875 -2.21875 -6.03125q-1.5625 -2.5625 -4.15625 -4.0q-2.59375 -1.4375 -6.53125 -1.4375q-3.5 0 -6.125 1.28125q-2.625 1.28125 -4.3125 3.75q-1.6875 2.46875 -2.53125 5.9375q-0.84375 3.46875 -0.84375 7.90625q0 4.125 0.6875 7.59375q0.6875 3.46875 2.21875 6.03125q1.53125 2.5625 4.15625 3.96875q2.625 1.40625 6.5 1.40625q3.5625 0 6.1875 -1.28125q2.625 -1.28125 4.3125 -3.71875q1.6875 -2.4375 2.5 -5.90625q0.8125 -3.46875 0.8125 -7.90625z" fill-rule="nonzero"/></g></svg>